<?xml version="1.0" encoding="utf-8"?>
<!-- Generator: Adobe Illustrator 27.1.1, SVG Export Plug-In . SVG Version: 6.00 Build 0)  -->
<svg version="1.1" id="Calque_1" xmlns="http://www.w3.org/2000/svg" xmlns:xlink="http://www.w3.org/1999/xlink" x="0px" y="0px"
	 viewBox="0 0 512 512" style="enable-background:new 0 0 512 512;" xml:space="preserve">
<path d="M34.9,125.8l56.7,31.9c8.3,4.7,19,2,23.7-5.9L198,12.1c3.2-5.4-1-12.1-7.6-12.1c-1.7,0-3.4,0.5-4.9,1.4L34,98.8
	C23.8,105.4,24.2,119.7,34.9,125.8L34.9,125.8z M0,171.7v123.6c0,8,11.1,11,15.7,4.4l64-92c5.3-7.6,2.8-17.8-5.5-22.5L25.8,158
	C14.5,151.6,0,159.3,0,171.7z M314,12.1l82.8,139.6c4.7,7.9,15.5,10.6,23.7,5.9l56.7-31.9c10.7-6,11.1-20.3,0.9-26.9L326.5,1.4
	C325,0.5,323.3,0,321.6,0C315,0,310.8,6.7,314,12.1z M512,171.7c0-12.4-14.5-20.1-25.8-13.7l-48.3,27.2c-8.3,4.7-10.8,14.9-5.5,22.5
	l64,92c4.6,6.7,15.7,3.6,15.7-4.4V171.7z M459.4,417.7l-171.3,18.9c-8.6,0.9-15,7.8-15,15.9v52.8c0,3.7,3.2,6.8,7.3,6.8
	c0.9,0,1.7-0.1,2.6-0.4l184.2-64c6.5-2.2,10.8-8,10.8-14.5C477.9,423.9,469.2,416.7,459.4,417.7L459.4,417.7z M231.7,512
	c3.9,0,7.3-3,7.3-6.8v-52.6c0-8.1-6.5-14.9-15-15.9l-171.3-19c-9.8-1.1-18.5,6.1-18.5,15.4c0,6.5,4.3,12.3,10.8,14.5l184.2,64
	C230,511.9,230.8,512,231.7,512L231.7,512z M27.4,382.9l182.3,20.2c8.3,0.9,14.3-7.5,10.1-14.3l-91.4-150
	c-6.3-10.4-22.1-10.8-29.1-0.8L15.1,358.2C8.2,368.1,14.8,381.5,27.4,382.9L27.4,382.9z M496.3,358.1l-83.6-120
	c-6.9-10-22.8-9.6-29.1,0.8l-91.1,149.6c-4.2,6.8,1.7,15.2,10.1,14.3l181.4-20C496.6,381.4,503.3,368.1,496.3,358.1L496.3,358.1z
	 M265,369.1l83.6-137.2c6.5-10.7-1.7-23.9-14.8-23.9H178.2c-13.1,0-21.3,13.3-14.8,23.9L247,369.1c3.9,6.4,13.9,6.4,17.8,0H265z
	 M169,176H343c13,0,21.2-13.1,14.9-23.8l-85.3-144c-3-5.1-8.7-8.2-14.9-8.2h-3.4c-6.2,0-11.9,3.2-14.9,8.2l-85.3,144
	C147.7,162.9,155.9,176,169,176z"/>
</svg>
